# xmcd CD database file
#
# Track frame offsets:
#	150
#	6724
#	25226
#	27200
#	49111
#	53180
#	73806
#	78610
#	104940
#	121452
#	130893
#	141976
#	157578
#	163985
#	165583
#	170973
#	183995
#	187871
#	203268
#	206475
#	227444
#	252293
#	264862
#
# Disc length: 3553 seconds
#
# Revision: 0
# Processed by: cddbd v1.5.2PL0 Copyright (c) Steve Scherf et al.
# Submitted via: CDex 1.70beta2
#
DISCID=440ddf17
DTITLE=Edgar Marc Petter - blue prints
DYEAR=2005
DGENRE=Jazz
TTITLE0=prologue
TTITLE1=kinda cool
TTITLE2=night
TTITLE3=endlessly rocking
TTITLE4=blueprint I
TTITLE5=nite 'n' day
TTITLE6=blueprint II
TTITLE7=song for maya
TTITLE8=future award
TTITLE9=blueprints
TTITLE10=sounds
TTITLE11=arborurban
TTITLE12=adesso blu
TTITLE13=something
TTITLE14=urban spaces III
TTITLE15=something's changin'
TTITLE16=arbor
TTITLE17=provence remembered
TTITLE18=blueprint III
TTITLE19='round midnight
TTITLE20=hymn of sorrow
TTITLE21=epilogue
TTITLE22=--
EXTD=YEAR: 2005
EXTT0=
EXTT1=
EXTT2=
EXTT3=
EXTT4=
EXTT5=
EXTT6=
EXTT7=
EXTT8=
EXTT9=
EXTT10=
EXTT11=
EXTT12=
EXTT13=
EXTT14=
EXTT15=
EXTT16=
EXTT17=
EXTT18=
EXTT19=
EXTT20=
EXTT21=
EXTT22=
PLAYORDER=
